# xmcd
#
# Track frame offsets:
#	150
#	20227
#	38287
#	60187
#	79010
#	100182
#	118500
#	141552
#	161890
#	178950
#
# Disc length: 2652 seconds
#
# Revision: 0
# Processed by: cddbd v1.5.1PL0 Copyright (c) Steve Scherf et al.
# Submitted via: dBpowerAMP V4.0
#
DISCID=810a5a0a
DTITLE=Johnnie Taylor - Super Hits
DYEAR=2002
DGENRE=Blues
TTITLE0=Disco Lady
TTITLE1=Somebody's Gettin' It
TTITLE2=Running Out Of Lies
TTITLE3=Your Love Is Rated X
TTITLE4=I'm Just A Shoulder To Cry On
TTITLE5=Play Somthing Pretty
TTITLE6=Love Is Better In The A.M. (Parts 1&2)
TTITLE7=Disco 9000
TTITLE8=(Ooh-Wee She's Killing Me
TTITLE9=God Is Standing By
EXTD=
EXTT0=
EXTT1=
EXTT2=
EXTT3=
EXTT4=
EXTT5=
EXTT6=
EXTT7=
EXTT8=
EXTT9=
PLAYORDER=
